         Avril Lavigne - What The Hell.

(New Years Rockin Eve 2011)[HDTV 1080p].mkv
      Format : Matroska
      File size : 444 MiB
      Duration : 4mn 10s
      Overall bit rate : 14.9 Mbps
      Writing application : Lavf51.12.1
      Writing library : Lavf51.12.1
   Video #1
      ID : 1
      Format : AVC
      Format/Info : Advanced Video Codec
      Format profile : Baseline@L1.3
      Format settings, CABAC : No
      Format settings, ReFrames : 1 frame
      Muxing mode : Container profile=Unknown@1.3
      Codec ID : V_MPEG4/ISO/AVC
      Duration : 4mn 9s
      Bit rate : 14.4 Mbps
      Width : 1 920 pixels
      Height : 1 080 pixels
      Display aspect ratio : 16:9
      Frame rate : 59.940 fps
      Resolution : 24 bits
      Colorimetry : 4:2:0
      Scan type : Progressive
      Bits/(Pixel*Frame) : 0.116
      Stream size : 430 MiB (97%)
   Audio #2
      ID : 2
      Format : MPEG Audio
      Format version : Version 1
      Format profile : Layer 3
      Codec ID : A_MPEG/L3
      Codec ID/Hint : MP3
      Duration : 4mn 10s
      Bit rate mode : Constant
      Bit rate : 128 Kbps
      Channel(s) : 2 channels
      Sampling rate : 44.1 KHz
      Resolution : 16 bits
      Stream size : 3.82 MiB (1%)